<?xml version="1.0" encoding="UTF-8" standalone="no"?>
<!-- Created with Inkscape (http://www.inkscape.org/) -->

<svg
   xmlns:dc="http://purl.org/dc/elements/1.1/"
   xmlns:cc="http://creativecommons.org/ns#"
   xmlns:rdf="http://www.w3.org/1999/02/22-rdf-syntax-ns#"
   xmlns:svg="http://www.w3.org/2000/svg"
   xmlns="http://www.w3.org/2000/svg"
   xmlns:sodipodi="http://sodipodi.sourceforge.net/DTD/sodipodi-0.dtd"
   xmlns:inkscape="http://www.inkscape.org/namespaces/inkscape"
   width="256"
   height="256"
   viewBox="0 0 67.733332 67.733335"
   version="1.1"
   id="svg8"
   inkscape:version="0.92.3 (2405546, 2018-03-11)"
   sodipodi:docname="placeholder-brand.svg">
  <defs
     id="defs2" />
  <sodipodi:namedview
     id="base"
     pagecolor="#ffffff"
     bordercolor="#666666"
     borderopacity="1.0"
     inkscape:pageopacity="1"
     inkscape:pageshadow="2"
     inkscape:zoom="2.1132812"
     inkscape:cx="-39.985216"
     inkscape:cy="128"
     inkscape:document-units="mm"
     inkscape:current-layer="layer1"
     showgrid="false"
     units="px"
     inkscape:pagecheckerboard="false"
     inkscape:window-width="1324"
     inkscape:window-height="737"
     inkscape:window-x="0"
     inkscape:window-y="0"
     inkscape:window-maximized="1" />
  <metadata
     id="metadata5">
    <rdf:RDF>
      <cc:Work
         rdf:about="">
        <dc:format>image/svg+xml</dc:format>
        <dc:type
           rdf:resource="http://purl.org/dc/dcmitype/StillImage" />
        <dc:title></dc:title>
      </cc:Work>
    </rdf:RDF>
  </metadata>
  <g
     inkscape:label="圖層 1"
     inkscape:groupmode="layer"
     id="layer1"
     transform="translate(0,-229.26665)">
    <g
       aria-label="gallery-dl"
       transform="matrix(0.20399475,0,0,0.20399475,-2.2941918,240.12527)"
       style="font-style:normal;font-variant:normal;font-weight:normal;font-stretch:normal;font-size:7.99999952px;line-height:100%;font-family:'Liberation Mono';-inkscape-font-specification:'Liberation Mono';font-variant-ligatures:normal;font-variant-position:normal;font-variant-caps:normal;font-variant-numeric:normal;font-variant-alternates:normal;font-feature-settings:normal;text-indent:0;text-align:start;text-decoration:none;text-decoration-line:none;text-decoration-style:solid;text-decoration-color:#000000;letter-spacing:0px;word-spacing:0px;text-transform:none;writing-mode:lr-tb;direction:ltr;text-orientation:mixed;dominant-baseline:auto;baseline-shift:baseline;text-anchor:start;white-space:normal;shape-padding:0;opacity:1;vector-effect:none;fill:#000000;fill-opacity:1;stroke:none;stroke-width:0.99999994px;stroke-linecap:butt;stroke-linejoin:miter;stroke-miterlimit:4;stroke-dasharray:none;stroke-dashoffset:0;stroke-opacity:1"
       id="flowRoot29">
      <path
         d="m 47.302734,135.1351 q -3.9375,0 -6.328125,-1.61718 -2.390625,-1.61719 -3.046875,-4.64063 l 4.3125,-0.58594 q 0.398438,1.75782 1.710938,2.69532 1.335937,0.96093 3.492187,0.96093 5.8125,0 5.8125,-7.38281 v -4.54687 h -0.04687 q -1.148437,2.41406 -3.1875,3.65625 -2.039062,1.24218 -4.851562,1.24218 -4.640625,0 -6.796875,-3.02343 -2.132813,-3.04688 -2.132813,-9.5625 0,-6.63282 2.296875,-9.75 2.296875,-3.140628 7.078125,-3.140628 2.648438,0 4.59375,1.242188 1.96875,1.21875 3.023438,3.49219 h 0.07031 q 0,-0.70313 0.09375,-2.36719 0.09375,-1.6875 0.1875,-1.96875 h 4.007813 q -0.140625,1.26562 -0.140625,5.25 v 19.35937 q 0,5.32032 -2.484375,7.99219 -2.484375,2.69531 -7.664063,2.69531 z m 5.953125,-22.85156 q 0,-4.52344 -1.757812,-7.10156 -1.757813,-2.60156 -4.828125,-2.60156 -3.210938,0 -4.640625,2.25 -1.429688,2.22656 -1.429688,7.45312 0,3.53906 0.585938,5.60156 0.609375,2.03907 1.875,2.97657 1.265625,0.9375 3.539062,0.9375 1.992188,0 3.492188,-1.10157 1.523437,-1.125 2.34375,-3.25781 0.820312,-2.15625 0.820312,-5.15625 z"
         style="font-style:normal;font-variant:normal;font-weight:normal;font-stretch:normal;font-size:48px;line-height:100%;font-family:'Liberation Mono';-inkscape-font-specification:'Liberation Mono';text-align:center;text-anchor:middle"
         id="path11" />
      <path
         d="m 87.498047,122.59604 q 0.609375,0 1.382812,-0.16406 v 2.625 q -1.59375,0.375 -3.257812,0.375 -2.34375,0 -3.421875,-1.21875 -1.054688,-1.24219 -1.195313,-3.86719 h -0.140625 q -1.523437,2.83594 -3.609375,4.07813 -2.0625,1.24218 -5.109375,1.24218 -3.703125,0 -5.578125,-2.01562 -1.875,-2.01563 -1.875,-5.53125 0,-8.17969 10.640625,-8.29688 l 5.53125,-0.0937 v -1.38281 q 0,-3.07031 -1.242187,-4.40625 -1.242188,-1.35937 -3.960938,-1.35937 -2.765625,0 -3.984375,0.98437 -1.21875,0.98438 -1.453125,3.04688 l -4.40625,-0.39844 q 1.078125,-6.84375 9.914063,-6.84375 4.6875,0 7.03125,2.20312 2.367187,2.17969 2.367187,6.32813 v 10.92187 q 0,1.875 0.492188,2.83594 0.492187,0.9375 1.875,0.9375 z m -14.273438,-0.14062 q 2.25,0 3.984375,-1.07813 1.734375,-1.07812 2.695313,-2.88281 0.960937,-1.80469 0.960937,-3.72656 v -2.08594 l -4.453125,0.0937 q -2.765625,0.0469 -4.21875,0.60937 -1.453125,0.5625 -2.273437,1.73438 -0.796875,1.14844 -0.796875,3.07031 0,1.92188 1.03125,3.09375 1.054687,1.17188 3.070312,1.17188 z"
         style="font-style:normal;font-variant:normal;font-weight:normal;font-stretch:normal;font-size:48px;line-height:100%;font-family:'Liberation Mono';-inkscape-font-specification:'Liberation Mono';text-align:center;text-anchor:middle"
         id="path13" />
      <path
         d="m 107.74805,121.86948 h 8.90625 v 3.32812 H 93.638672 v -3.32812 h 9.890628 v -28.125 h -6.773441 v -3.328125 h 10.992191 z"
         style="font-style:normal;font-variant:normal;font-weight:normal;font-stretch:normal;font-size:48px;line-height:100%;font-family:'Liberation Mono';-inkscape-font-specification:'Liberation Mono';text-align:center;text-anchor:middle"
         id="path15" />
      <path
         d="m 136.55273,121.86948 h 8.90625 v 3.32812 h -23.01562 v -3.32812 h 9.89062 v -28.125 h -6.77343 v -3.328125 h 10.99218 z"
         style="font-style:normal;font-variant:normal;font-weight:normal;font-stretch:normal;font-size:48px;line-height:100%;font-family:'Liberation Mono';-inkscape-font-specification:'Liberation Mono';text-align:center;text-anchor:middle"
         id="path17" />
      <path
         d="m 155.6543,113.40854 q 0,4.26563 1.875,6.67969 1.89843,2.41406 5.17968,2.41406 2.41407,0 4.21875,-1.03125 1.82813,-1.05469 2.4375,-2.85937 l 3.70313,1.05468 q -1.03125,2.90625 -3.79688,4.45313 -2.74218,1.54687 -6.5625,1.54687 -5.53125,0 -8.50781,-3.44531 -2.97656,-3.44531 -2.97656,-9.86719 0,-6.25781 2.90625,-9.60937 2.92969,-3.375 8.4375,-3.375 5.50781,0 8.34375,3.35156 2.83594,3.35156 2.83594,10.125 v 0.5625 z m 6.96093,-10.92187 q -3.14062,0 -4.96875,2.0625 -1.82812,2.03906 -1.94531,5.625 h 13.6875 q -0.65625,-7.6875 -6.77344,-7.6875 z"
         style="font-style:normal;font-variant:normal;font-weight:normal;font-stretch:normal;font-size:48px;line-height:100%;font-family:'Liberation Mono';-inkscape-font-specification:'Liberation Mono';text-align:center;text-anchor:middle"
         id="path19" />
      <path
         d="m 201.4043,103.68198 q -2.625,-0.44531 -4.96875,-0.44531 -3.77344,0 -6.09375,2.83593 -2.32032,2.83594 -2.32032,7.21875 v 11.90625 h -4.21875 v -16.42968 q 0,-1.78125 -0.32812,-4.19532 -0.30469,-2.41406 -0.89063,-4.73437 h 4.00782 q 0.9375,3.23437 1.125,5.85937 h 0.11718 q 1.17188,-2.625 2.29688,-3.84375 1.125,-1.24218 2.67187,-1.85156 1.54688,-0.63281 3.77344,-0.63281 2.4375,0 4.82813,0.398437 z"
         style="font-style:normal;font-variant:normal;font-weight:normal;font-stretch:normal;font-size:48px;line-height:100%;font-family:'Liberation Mono';-inkscape-font-specification:'Liberation Mono';text-align:center;text-anchor:middle"
         id="path21" />
      <path
         d="m 212.56055,135.15854 q -1.73438,0 -2.90625,-0.25781 v -3.16406 q 0.89062,0.14062 1.96875,0.14062 1.85156,0 3.46875,-1.38281 1.64062,-1.38281 2.76562,-4.40625 l 0.42188,-1.14844 -11.01563,-25.10156 h 4.5 l 6.1875,15.04687 q 2.13281,5.25 2.29688,5.95313 l 0.96093,-2.57813 7.26563,-18.42187 h 4.45312 l -10.6875,25.35937 q -2.08593,5.50782 -4.33593,7.73438 -2.22657,2.22656 -5.34375,2.22656 z"
         style="font-style:normal;font-variant:normal;font-weight:normal;font-stretch:normal;font-size:48px;line-height:100%;font-family:'Liberation Mono';-inkscape-font-specification:'Liberation Mono';text-align:center;text-anchor:middle"
         id="path23" />
      <path
         d="m 242.34961,114.3226 v -3.75 h 13.125 v 3.75 z"
         style="font-style:normal;font-variant:normal;font-weight:normal;font-stretch:normal;font-size:48px;line-height:100%;font-family:'Liberation Mono';-inkscape-font-specification:'Liberation Mono';text-align:center;text-anchor:middle"
         id="path25" />
      <path
         d="m 283.5293,121.11948 q -1.14844,2.46094 -3.04688,3.58594 -1.89844,1.10156 -4.73437,1.10156 -4.73438,0 -6.96094,-3.25781 -2.22656,-3.25782 -2.22656,-9.82032 0,-13.26562 9.1875,-13.26562 2.83593,0 4.73437,1.00781 1.92188,1.00781 3.07031,3.30469 h 0.0469 l -0.0469,-3.53906 v -9.820315 h 4.21875 v 29.554685 q 0,3.96094 0.14063,5.22656 h -4.03125 q -0.0937,-0.35156 -0.16406,-1.71093 -0.0703,-1.35938 -0.0703,-2.36719 z m -12.60938,-8.53125 q 0,5.20312 1.38281,7.59375 1.40625,2.36719 4.54688,2.36719 3.42187,0 5.0625,-2.46094 1.64062,-2.48438 1.64062,-7.875 0,-5.03906 -1.59375,-7.33594 -1.57031,-2.29687 -5.0625,-2.29687 -3.16406,0 -4.57031,2.41406 -1.40625,2.41406 -1.40625,7.59375 z"
         style="font-style:normal;font-variant:normal;font-weight:normal;font-stretch:normal;font-size:48px;line-height:100%;font-family:'Liberation Mono';-inkscape-font-specification:'Liberation Mono';text-align:center;text-anchor:middle"
         id="path27" />
      <path
         d="m 309.38086,121.86948 h 8.90625 v 3.32812 h -23.01563 v -3.32812 h 9.89063 v -28.125 h -6.77344 v -3.328125 h 10.99219 z"
         style="font-style:normal;font-variant:normal;font-weight:normal;font-stretch:normal;font-size:48px;line-height:100%;font-family:'Liberation Mono';-inkscape-font-specification:'Liberation Mono';text-align:center;text-anchor:middle"
         id="path29" />
    </g>
  </g>
</svg>
